<svg preserveAspectRatio="xMidYMid meet" data-bbox="45 18.4 110 163.013" viewBox="45 18.4 110 163.013" height="200" width="200" xmlns="http://www.w3.org/2000/svg" data-type="color" role="presentation" aria-hidden="true" aria-label="">
    <g>
        <path d="M128.2 32.5c-2.3-1.5-5-2.6-6.7-3.2 0-.3-.1-.7-.2-.9-.8-2.9-4-4.9-7.9-4.9-2.1 0-3.9.5-5.3 1.5 0 0-.1-1.4-.3-1.7-.8-2.9-4-4.9-7.9-4.9-2.8 0-5.2 1-6.7 2.6l-.3.4c-.6.8-1 1.8-1.2 2.8-.1.2-.1.5-.1.8-1.4-.9-3.2-1.4-5.2-1.4-2.9 0-5.1.8-6.8 2.7-.7.8-1 1.8-1.2 2.7-2.4 1-4.9 2.2-6 3C55.5 41.8 45 59.8 45 79.5v50.3c0 22 13.2 41.8 33.5 50.6 3 1.3 9.9 1.4 12.2 0 2.3-1.4 12.7-7.9 12.7-7.9l2.5 2.8c1.5 1.7 4 1.9 5.8.5l2.3-1.8c2.1 2.1 7 5.1 9.2 5.1.8 0 1.5-.3 1.9-.5h.1c.6-.3 1.1-.6 1.6-.9.5-.3 1-.6 1.6-.9l.1-.1c16.4-9.9 26.5-27.9 26.5-46.9V79.4c-.3-19.2-10.5-37-26.8-46.9z" fill="#c0e1bd" data-color="1"></path>
        <path d="M99.8 46.3c2.6 0 4.7-1.2 5.2-2.9.1-.1.2-.3.2-.3V24.6c0-.1 0-.3-.1-.3-.3-1.7-2.5-3-5.2-3-3 0-5.2 1.5-5.2 3.5 0 .1-.1.2-.1.3v18.1c0 .2.1.3.2.3.2 1.6 2.3 2.8 5 2.8zm-4-6.4c.9.8 2.4 1.2 4 1.2s3-.5 4-1.2v.1c0 .1-.1.2-.1.2 0 1.2-1.8 2.2-4 2.2-2.1 0-4-1-4-2.2V40l.1-.1zm7.9-5c0 .1-.1.2-.1.2 0 1.2-1.8 2.2-4 2.2-2.1 0-4-1-4-2.2v-.3c.9.8 2.4 1.2 4 1.2 1.7 0 3.1-.5 4.1-1.1zm0-2.7c0 .1-.1.2-.1.2 0 1.2-1.8 2.2-4 2.2-2.1 0-4-1-4-2.2v-.3c.9.8 2.4 1.2 4 1.2 1.7 0 3.1-.5 4.1-1.1zm-7.9 5.1c.9.8 2.4 1.2 4 1.2s3-.5 4-1.2v.1c0 .1-.1.2-.1.2 0 1.2-1.8 2.2-4 2.2-2.1 0-4-1-4-2.2 0-.1 0-.2.1-.3zm7.9-7.6c0 .1-.1.2-.1.2 0 1.2-1.8 2.2-4 2.2-2.1 0-4-1-4-2.2v-.3c.9.8 2.4 1.2 4 1.2 1.7 0 3.1-.5 4.1-1.1zm-3.9 15.4c-2.1 0-4-1-4-2.2v-.4c.9.8 2.4 1.2 4 1.2s3-.5 4-1.2v.1c0 .1-.1.2-.1.2 0 1.3-1.8 2.3-3.9 2.3zm0-22.5c2.1 0 4 1 4 2.2v2.5c0 1.2-1.8 2.2-4 2.2-2.1 0-4-1-4-2.2V27c.9.8 2.4 1.2 4 1.2 1.1 0 2.1-.2 3-.6.3-.2.4-.5.3-.8-.2-.3-.5-.4-.8-.3-.8.4-1.6.6-2.5.6-2.1 0-4-1-4-2.2 0-1.3 1.9-2.3 4-2.3z" fill="#3c693c" data-color="2"></path>
        <path d="M86.2 41.1c2.6 0 4.7-1.2 5.2-2.9.1-.1.2-.3.2-.3v-8.1c0-.1 0-.3-.1-.3-.3-1.7-2.5-3-5.2-3-3 0-5.2 1.5-5.2 3.5 0 .1-.1.2-.1.3V38c0 .2.1.3.2.3.4 1.6 2.4 2.8 5 2.8zm4-6.2v.2c0 1.2-1.8 2.2-4 2.2-2.1 0-4-1-4-2.2 0-.1 0-.2-.1-.2v-.1c.9.8 2.4 1.2 4 1.2 1.7 0 3.1-.5 4.1-1.1zm-4 5c-2.1 0-4-1-4-2.2 0-.1 0-.2-.1-.2v-.1c.9.8 2.4 1.2 4 1.2s3-.5 4-1.2v.3c.1 1.1-1.7 2.2-3.9 2.2zm0-12.1c2.1 0 4 1 4 2.2v2.5c0 1.2-1.8 2.2-4 2.2-2.1 0-4-1-4-2.2 0-.1 0-.2-.1-.2v-.1c.9.8 2.4 1.2 4 1.2 1.1 0 2.1-.2 3-.6.3-.2.4-.5.3-.8-.2-.3-.5-.4-.8-.3-.7.3-1.5.5-2.5.5-2.1 0-4-1-4-2.2.3-1.2 2-2.2 4.1-2.2z" fill="#3c693c" data-color="2"></path>
        <path d="M113.3 41.1c4.5 0 5.3-2.8 5.3-3.2v-8.1c0-.1 0-.3-.1-.3-.3-1.7-2.5-3-5.2-3-3 0-5.2 1.5-5.2 3.5 0 .1-.1.2-.1.3V38c0 .2.1.3.2.3.3 1.6 2.5 2.8 5.1 2.8zm4-6.2v.2c0 1.2-1.8 2.2-4 2.2-2.1 0-4-1-4-2.2v-.3c.9.8 2.4 1.2 4 1.2s3-.5 4-1.1zm-4 5c-2.1 0-4-1-4-2.2v-.3c.9.8 2.4 1.2 4 1.2s3-.5 4-1.2v.3c-.1 1.1-1.9 2.2-4 2.2zm0-12.1c2.1 0 4 1 4 2.2v2.5c0 1.2-1.8 2.2-4 2.2-2.1 0-4-1-4-2.2v-.3c.9.8 2.4 1.2 4 1.2 1.1 0 2.1-.2 3-.6.3-.2.4-.5.3-.8-.2-.3-.5-.4-.8-.3-.7.3-1.5.5-2.5.5-2.1 0-4-1-4-2.2 0-1.2 1.9-2.2 4-2.2z" fill="#3c693c" data-color="2"></path>
        <path d="M126.4 116.2c.3-.4.5-.8.8-1.3 1.5-2.1 3.5-4.9 3.8-10.5.9.8 2 1.2 3.3 1.2h.2c2.5 0 4.5-1.9 4.6-4.4.1-2.1-1.6-3.8-3.6-3.9-1.7-.1-3.2 1.3-3.2 3-.1 1.4 1.1 2.7 2.5 2.7.6 0 1.2-.2 1.6-.6s.7-.9.7-1.5c0-.3-.3-.7-.6-.7s-.7.3-.7.6c0 .5-.5.9-1 .9-.8 0-1.4-.7-1.4-1.4 0-1 .9-1.9 1.9-1.9 1.4.1 2.5 1.2 2.5 2.6 0 .8-.4 1.7-1 2.3-.7.6-1.4.9-2.4.9-1.4-.1-2.5-.7-3.3-1.7v-.4c-.3-10.7-11.2-18.4-26-18.4-6 0-11.8 1.6-16.6 4.6-3.9-3.9-8.8-3.4-12-1.8-1.1.6-1.7 1.8-1.5 3 .3 2.4 1.5 4.1 3 5.2-2.2 4.4-8.2 7.7-15.4 8.3-2 .2-3.6 1.9-3.6 3.9v.8c0 .8.2 1.4.6 2.1 1.7 2.6 7.9 11.4 18.1 12.5.7.1 1.2.7 1.2 1.4v7c0 2.2 1.8 3.9 3.9 3.9H85c1.1 0 2.2-.5 3-1.4 1.4-1.6 4-4.9 5.4-9.8h13.2c.3 0 .7-.3.7-.6s-.3-.6-.7-.6H93.8c.6-2.5.9-5.2.7-8.5-.1-.7-.7-1.2-1.4-1.2-.7.1-1.2.7-1.2 1.4.8 9.3-3.8 15.4-5.7 17.6-.3.3-.7.5-1 .5h-2.3c-.8 0-1.4-.6-1.4-1.4v-7c0-2-1.5-3.7-3.5-3.9-9-1-14.7-9-16.2-11.4-.2-.3-.2-.5-.2-.8v-.8c0-.7.6-1.4 1.3-1.4 8-.7 14.7-4.3 17.3-9.5 1.4.7 2.8 1 3.8 1.1h.2c.7 0 1.2-.5 1.3-1.1.1-.7-.4-1.4-1.1-1.4-.1 0-6.1-.7-6.8-5.5 0-.2.1-.3.2-.4.8-.4 5-2.3 8.6.9-.1 0-.2.1-.2.2-.6.4-.7 1.3-.3 1.8.4.6 1.3.7 1.8.3.4-.3.8-.7 1.4-.9 4.5-3 10.2-4.7 16.1-4.7 13.2 0 23.2 6.9 23.5 15.9.2 6.3-1.8 9-3.4 11.2l-1.2 1.8c-.1.3-.2.5-.2.8.8 9.2-3.5 14.4-5.3 16.2-.3.3-.6.4-.9.4h-2.3c-.8 0-1.4-.6-1.4-1.4v-7.9c0-.2-.1-.4-.2-.6-.8-1.4-2.5-5.8-.9-7.5.4-.5.3-1.4-.2-1.8-.5-.4-1.4-.3-1.8.2-2.5 3.2-.2 8.6.5 10.1v7.5c0 2.2 1.8 3.9 3.9 3.9h2.3c1 0 2-.4 2.7-1.1 2-1.9 6.8-7.7 6.1-17.6z" fill="#3c693c" data-color="2"></path>
        <path d="M79 102.4c0 1.3 1 2.3 2.3 2.3 1.3 0 2.3-1 2.3-2.3s-1-2.3-2.3-2.3c-1.3.1-2.3 1.1-2.3 2.3zm3.3 0c0 .6-.4 1-1 1s-1-.4-1-1 .4-1 1-1 1 .5 1 1z" fill="#3c693c" data-color="2"></path>
        <path d="M111.3 91.4c.2-.3.1-.8-.3-.9-7.4-4.3-15.6.4-16 .7-.3.2-.4.6-.3.9.1.2.3.3.6.3.1 0 .3 0 .3-.1.1-.1 7.9-4.6 14.6-.7.5.2 1 .1 1.1-.2z" fill="#3c693c" data-color="2"></path>
        <path d="M97.7 75.6c0 2.5 2 4.5 4.5 4.5s4.5-2 4.5-4.5-2-4.5-4.5-4.5c-2.5.1-4.5 2.1-4.5 4.5zm7.6 0c0 1.8-1.4 3.2-3.2 3.2-1.8 0-3.2-1.4-3.2-3.2 0-1.8 1.4-3.2 3.2-3.2 1.8 0 3.2 1.5 3.2 3.2z" fill="#3c693c" data-color="2"></path>
        <path d="M101.2 67.9v-6.6c0-.3-.3-.6-.7-.6s-.7.3-.7.6v6.6c0 .3.3.6.7.6s.7-.3.7-.6z" fill="#3c693c" data-color="2"></path>
        <path d="M102.6 65.9c0 .3.3.6.7.6.4 0 .7-.3.7-.6V59c0-.3-.3-.6-.7-.6-.4 0-.7.3-.7.6v6.9z" fill="#3c693c" data-color="2"></path>
        <path d="M103.1 57c.3 0 .7-.3.7-.6v-3.1c0-.3-.3-.6-.7-.6s-.7.3-.7.6v3.1c.2.3.4.6.7.6z" fill="#3c693c" data-color="2"></path>
        <path d="M124.8 33.9c-.6-.3-1.4-.1-1.7.5-.3.6-.1 1.4.5 1.7 15.8 8.7 25.7 25.4 25.7 43.3v50.3c0 17.1-9.1 33.3-23.8 42.3-1 .6-2 1.2-3 1.7-.6.3-.8 1.1-.5 1.7.3.4.7.7 1.1.7.2 0 .4-.1.6-.2 1.1-.6 2.1-1.2 3.2-1.8 15.5-9.4 25.1-26.5 25.1-44.4V79.4c-.3-18.8-10.6-36.3-27.2-45.5z" fill="#3c693c" data-color="2"></path>
        <path d="M80.6 175.3c-18.3-7.8-30.2-25.7-30.2-45.5V79.4c0-17.9 9.8-34.6 25.7-43.3.6-.3.8-1.1.5-1.7s-1.1-.8-1.7-.5c-16.7 9.1-27 26.6-27 45.5v50.3c0 20.9 12.5 39.7 31.8 47.9.2.1.3.1.5.1.5 0 .9-.3 1.2-.8.1-.6-.1-1.3-.8-1.6z" fill="#3c693c" data-color="2"></path>
        <path d="M118.3 163.9h-6.1c-.7 0-1.3.6-1.3 1.3 0 .7.6 1.3 1.3 1.3h2.3l-5.5 4.3-4.1-4.6c-.4-.4-1.1-.6-1.6-.3l-15.4 9.6c-.6.3-.8 1.2-.4 1.8.3.4.7.6 1.1.6.3 0 .4-.1.7-.2l14.4-9 4.2 4.7c.4.5 1.2.6 1.7.2l6.7-5.2-.6 2.6c-.2.7.3 1.4 1 1.5h.3c.6 0 1.1-.4 1.3-1l1.3-5.9c.1-.3 0-.8-.3-1.1s-.6-.6-1-.6z" fill="#3c693c" data-color="2"></path>
        <path d="M65.6 146.6h8.5c.3 0 .7-.3.7-.6s-.3-.6-.7-.6h-8.5c-.3 0-.7.3-.7.6.1.3.4.6.7.6z" fill="#3c693c" data-color="2"></path>
        <path d="M65.6 149.4h8.5c.3 0 .7-.3.7-.6s-.3-.6-.7-.6h-8.5c-.3 0-.7.3-.7.6s.4.6.7.6z" fill="#3c693c" data-color="2"></path>
        <path d="M66.1 69.3c.2 0 .3-.1.5-.3l7.6-9.7c.3-.3.2-.7-.1-.9-.3-.3-.7-.2-.9.1l-7.6 9.7c-.3.3-.2.7.1.9.1.1.3.2.4.2z" fill="#3c693c" data-color="2"></path>
        <path d="M72.1 69.3c1.2 0 2.2-1 2.2-2.2 0-1.2-1-2.2-2.2-2.2-1.2 0-2.2 1-2.2 2.2 0 1.2 1.1 2.2 2.2 2.2zm0-3.2c.5 0 .9.4.9.9s-.4.9-.9.9-.9-.4-.9-.9.4-.9.9-.9z" fill="#3c693c" data-color="2"></path>
        <path d="M67.7 62.7c1.2 0 2.2-1 2.2-2.2 0-1.2-1-2.2-2.2-2.2s-2.2 1-2.2 2.2 1 2.2 2.2 2.2zm0-3.1c.5 0 .9.4.9.9s-.4.9-.9.9-.9-.4-.9-.9.4-.9.9-.9z" fill="#3c693c" data-color="2"></path>
        <path d="M132.6 144.8c.3.2.7.1.8-.2.2-.3.1-.7-.2-.8-.6-.3-1.2-.6-1.9-.7v-1c0-.3-.3-.6-.7-.6s-.7.3-.7.6v1c-.5.1-.9.3-1.3.6-.5.4-.7 1-.7 1.6.1.8.6 1.5 1.4 2.1l1.6.8c.5.3.8.8.8 1.2 0 .3-.1.4-.3.6-.6.5-1.9.5-2.8-.2-.3-.2-.7-.1-.8.2-.2.3-.1.7.2.8.6.3 1.2.6 1.9.7v1c0 .3.3.6.7.6.4 0 .7-.3.7-.6v-1.1c.5-.1.9-.3 1.3-.6.5-.4.7-1 .7-1.6-.1-.8-.6-1.5-1.4-2.1l-1.6-.8c-.5-.3-.8-.8-.8-1.2 0-.3.1-.4.3-.6.6-.4 1.9-.3 2.8.3z" fill="#3c693c" data-color="2"></path>
        <path d="M127.4 67.3c.1.1.3.2.4.2s.3-.1.4-.2l2.6-2.7 2.6 2.7c.1.2.3.2.4.2.2 0 .3-.1.4-.2.3-.3.3-.7 0-.9l-2.6-2.7 2.6-2.7c.3-.3.3-.7 0-.9-.3-.3-.7-.3-.9 0l-2.6 2.7-2.6-2.7c-.3-.3-.7-.3-.9 0s-.3.7 0 .9l2.6 2.7-2.6 2.7c-.1.4-.1.7.2.9z" fill="#3c693c" data-color="2"></path>
    </g>
</svg>