<svg preserveAspectRatio="xMidYMid meet" data-bbox="39.002 38.996 122 122.008" viewBox="39.002 38.996 122 122.008" height="200" width="200" xmlns="http://www.w3.org/2000/svg" data-type="color" role="presentation" aria-hidden="true" aria-label="">
    <g>
        <path fill="#FF8969" d="M161.002 100c0 33.692-27.31 61.004-61 61.004s-61-27.312-61-61.004c0-33.692 27.31-61.004 61-61.004s61 27.312 61 61.004z" data-color="1"></path>
        <path d="M161 99.999c0-5.049-.624-9.953-1.776-14.649-9.53-5.531-19.049-11.075-28.574-16.605.07.161-1.073.333-1.073.513l.142 43.272c0 .339-.86.772-1.109 1.016l-14.641 15.531c-.174.504-.889.578-1.453.578l-1.031.547-42.296.083c16.001 9.295 32.408 18.833 48.404 28.13C142.709 150.866 161 127.573 161 99.999z" opacity=".1"></path>
        <path d="M86.464 110.044c-.424 0-.634-.352-.634-.778v-2.063c0-.427.209-.776.634-.776s.634.349.634.776v2.063c0 .426-.21.778-.634.778z" fill="#FFFFFF" data-color="2"></path>
        <path d="M86.464 104.879c-.424 0-.634-.344-.634-.776v-3.096c0-.428.209-.776.634-.776s.634.348.634.776v3.096c0 .432-.21.776-.634.776zm0-6.198c-.424 0-.634-.342-.634-.775v-3.097c0-.428.209-.774.634-.774s.634.346.634.774v3.097c0 .433-.21.775-.634.775zm0-6.194c-.424 0-.634-.343-.634-.773v-3.097c0-.426.209-.774.634-.774s.634.348.634.774v3.097c0 .43-.21.773-.634.773zm0-6.192c-.424 0-.634-.349-.634-.78v-3.097c0-.428.209-.774.634-.774s.634.346.634.774v3.097c0 .43-.21.78-.634.78zm0-6.198c-.424 0-.634-.348-.634-.775v-3.095c0-.434.209-.779.634-.779s.634.345.634.779v3.095c0 .427-.21.775-.634.775z" fill="#FFFFFF" data-color="2"></path>
        <path d="M86.464 72.352c-.424 0-.634-.346-.634-.775V69.51c0-.426.209-.776.634-.776s.634.349.634.776v2.067c0 .43-.21.775-.634.775z" fill="#FFFFFF" data-color="2"></path>
        <path d="M128.265 112.045c0 .42-.349.631-.778.631h-2.066c-.429 0-.778-.211-.778-.631 0-.427.349-.635.778-.635h2.066c.429 0 .778.208.778.635z" fill="#FFFFFF" data-color="2"></path>
        <path d="M123.101 112.045c0 .42-.349.631-.773.631h-3.104c-.424 0-.773-.211-.773-.631 0-.427.349-.635.773-.635h3.104c.424 0 .773.208.773.635zm-6.197 0c0 .42-.349.631-.773.631h-3.093c-.429 0-.778-.211-.778-.631 0-.427.349-.635.778-.635h3.093c.424 0 .773.208.773.635zm-6.192 0c0 .42-.349.631-.783.631h-3.094c-.424 0-.768-.211-.768-.631 0-.427.344-.635.768-.635h3.094c.434 0 .783.208.783.635zm-6.202 0c0 .42-.344.631-.768.631h-3.098c-.434 0-.778-.211-.778-.631 0-.427.344-.635.778-.635h3.098c.424 0 .768.208.768.635zm-6.191 0c0 .42-.349.631-.783.631h-3.088c-.429 0-.773-.211-.773-.631 0-.427.344-.635.773-.635h3.088c.433 0 .783.208.783.635z" fill="#FFFFFF" data-color="2"></path>
        <path d="M90.57 112.045c0 .42-.344.631-.773.631h-2.066c-.429 0-.768-.211-.768-.631 0-.427.339-.635.768-.635h2.066c.429 0 .773.208.773.635z" fill="#FFFFFF" data-color="2"></path>
        <path d="M86.075 112.225c.304.302.2.688-.1.993l-2.19 2.193c-.309.305-.694.403-.993.101-.304-.302-.205-.695.1-.998l2.19-2.192c.299-.297.688-.399.993-.097zm-4.386 4.381c.309.303.205.692-.095.995l-2.19 2.191c-.299.307-.694.404-.998.098-.294-.3-.2-.694.105-.995l2.195-2.189c.295-.305.689-.406.983-.1zm-4.376 4.381c.299.299.2.696-.095.993l-2.195 2.193c-.304.302-.694.402-.993.099-.304-.298-.2-.691.105-.994l2.185-2.192c.3-.306.694-.402.993-.099z" fill="#FFFFFF" data-color="2"></path>
        <path d="M71.83 126.459c.309.309.209.696-.095.998l-1.457 1.465c-.305.302-.698.399-.998.097-.299-.303-.2-.692.105-.997l1.457-1.457c.304-.303.694-.405.988-.106z" fill="#FFFFFF" data-color="2"></path>
        <path d="M112.863 86.854H69.49c-.524 0-.993-.208-1.198-.691-.194-.476-.08-.984.285-1.356l16.525-16.54a1.31 1.31 0 0 1 .918-.395h43.368c.519 0 .993.357 1.197.841.19.48.085 1.063-.284 1.431l-16.525 16.429c-.245.24-.569.281-.913.281zm-40.25-2.531h39.715l13.94-13.92h-39.73l-13.925 13.92z" fill="#005473" data-color="3"></path>
        <path d="M114.305 129.241c0 .715-.569 1.29-1.282 1.29H69.395a1.288 1.288 0 0 1-1.287-1.29V85.619c0-.715.579-1.296 1.287-1.296h43.627c.713 0 1.282.581 1.282 1.296v43.622zm-43.658-1.246h41.132V86.854H70.647v41.141z" fill="#005473" data-color="3"></path>
        <path d="M112.863 130.531H69.49c-.708 0-1.382-.671-1.382-1.382V85.775c0-.343.18-.673.424-.91l16.55-16.568c.24-.246.594-.424.938-.424h43.368c.704 0 1.382.669 1.382 1.384v43.371c0 .339-.175.667-.424.91l-16.55 16.571c-.24.239-.589.422-.933.422zm-42.216-2.536h41.681l15.906-15.906V70.403H86.539L70.647 86.315v41.68z" fill="#005473" data-color="3"></path>
        <path d="M93.444 108.374c-.174-.631-.045-2.172.23-3.606l1.567-8.387c.499-2.786 1.377-4.14 2.265-4.895.823-.713 1.776-1.16 3.113-1.16 2.15 0 3.348 1.424 3.348 3.075 0 1.598-.893 2.794-2.105 3.375l-.02.113c1.063.311 1.971 1.492 1.971 3.078 0 2.628-2.17 4.381-4.465 4.381-1.108 0-2.095-.402-2.694-1.034h-.035l-.214 1.429c-.21 1.158-.449 2.369-.394 3.63h-2.567zm5.743-12.023c.12 0 .219 0 .334-.042 1.043-.177 1.836-1.088 1.836-2.38 0-.797-.414-1.432-1.163-1.432-.933 0-1.701.869-2.131 3.209l-1.043 5.612c.354.576 1.023 1.045 1.836 1.045 1.217 0 2.131-1.064 2.131-2.361 0-1.083-.743-1.776-1.706-1.915-.14-.016-.274 0-.424 0l.33-1.736z" fill="#005473" data-color="3"></path>
    </g>
</svg>