<svg preserveAspectRatio="xMidYMid meet" data-bbox="20 20 160 160" viewBox="20 20 160 160" height="200" width="200" xmlns="http://www.w3.org/2000/svg" data-type="color" role="presentation" aria-hidden="true" aria-label=""><defs><style>#comp-lq5q1n0c__item-ker6vlu0 svg [data-color="1"] {fill: #CF6657;}</style></defs>
    <g>
        <path d="M100 20c-13.143 0-26.176 3.26-37.696 9.424a4.702 4.702 0 0 0-1.93 6.366c1.219 2.292 4.081 3.174 6.366 1.93 8.779-4.697 18.573-7.349 28.554-8.019v15.635C67.218 47.735 45.098 71.313 45.098 100a54.814 54.814 0 0 0 7.384 27.482 4.703 4.703 0 0 0 6.434 1.704 4.71 4.71 0 0 0 1.703-6.434 45.394 45.394 0 0 1-6.109-22.751c0-25.086 20.404-45.49 45.49-45.49 7.028 0 13.768 1.569 20.031 4.657a4.707 4.707 0 1 0 4.167-8.443c-6.158-3.034-12.703-4.787-19.491-5.36V29.65c36.726 2.44 65.882 33.017 65.882 70.35 0 38.922-31.667 70.588-70.588 70.588S29.412 138.922 29.412 100c0-15.355 4.841-29.945 14.001-42.206a4.71 4.71 0 0 0-.95-6.587 4.703 4.703 0 0 0-6.587.95C25.49 66.06 20 82.604 20 100c0 44.112 35.888 80 80 80s80-35.888 80-80-35.888-80-80-80z" fill="#B25415" data-color="1"></path>
        <path d="M79.608 100c0-2.598-2.108-4.706-4.706-4.706s-4.706 2.108-4.706 4.706c0 14.822 10.907 27.053 25.098 29.328v15.824c-3.881-.388-7.715-1.21-11.366-2.597a4.707 4.707 0 0 0-3.345 8.799 54.578 54.578 0 0 0 19.418 3.548 54.743 54.743 0 0 0 27.457-7.377 4.7 4.7 0 0 0 1.71-6.428c-1.293-2.249-4.185-3.015-6.428-1.71-5.522 3.197-11.716 5.1-18.033 5.758v-15.817c12.648-2.028 22.594-11.974 24.622-24.622h15.889c-.568 5.574-2.119 10.933-4.696 15.968a4.695 4.695 0 0 0 2.04 6.33 4.696 4.696 0 0 0 6.329-2.04c3.934-7.665 6.011-16.299 6.011-24.963 0-11.225-3.376-22.028-9.767-31.225-1.477-2.132-4.418-2.659-6.55-1.183a4.71 4.71 0 0 0-1.183 6.55c4.391 6.317 6.95 13.564 7.734 21.152h-15.808C127.053 81.103 114.822 70.196 100 70.196c-7.678 0-14.969 2.923-20.539 8.223a4.704 4.704 0 0 0-.159 6.654 4.71 4.71 0 0 0 6.654.159A20.27 20.27 0 0 1 100 79.607c11.244 0 20.392 9.148 20.392 20.392s-9.148 20.392-20.392 20.392S79.608 111.244 79.608 100z" fill="#B25415" data-color="1"></path>
        <path fill="#B25415" d="M106.275 100a6.275 6.275 0 1 1-12.55 0 6.275 6.275 0 0 1 12.55 0z" data-color="1"></path>
    </g>
</svg>