<svg preserveAspectRatio="xMidYMid meet" viewBox="27.5 27.5 145 145" height="200" width="200" xmlns="http://www.w3.org/2000/svg" data-type="color" role="presentation" aria-hidden="true" aria-label="">
    <g>
        <path fill="#FF6D3B" d="M172.5 100c0 40.04-32.46 72.5-72.5 72.5S27.5 140.04 27.5 100 59.96 27.5 100 27.5s72.5 32.46 72.5 72.5z" data-color="1"></path>
        <path fill="#FFB733" d="M74.935 128.865v3.023H56.627v-3.023h18.308z" data-color="2"></path>
        <path fill="#FFFFFF" opacity=".1" d="M74.935 128.65v2.706H56.627v-2.706h18.308z" data-color="3"></path>
        <path d="M58.673 131.888h-.739v-3.238h.739v3.238zm2.03-3.238h-1.696v3.238h1.696v-3.238z" fill="#FFFFFF" opacity=".4" data-color="3"></path>
        <path fill="#FFB733" d="M74.935 125.628v3.022H56.627v-3.022h18.308z" data-color="2"></path>
        <path fill="#FFFFFF" opacity=".1" d="M74.935 125.411v2.707H56.627v-2.707h18.308z" data-color="3"></path>
        <path d="M58.673 128.65h-.739v-3.239h.739v3.239zm2.03-3.239h-1.696v3.239h1.696v-3.239z" fill="#FFFFFF" opacity=".4" data-color="3"></path>
        <path fill="#FFB733" d="M143.383 128.865v3.023h-18.308v-3.023h18.308z" data-color="2"></path>
        <path fill="#FFFFFF" opacity=".1" d="M143.383 128.65v2.706h-18.308v-2.706h18.308z" data-color="3"></path>
        <path d="M127.12 131.888h-.739v-3.238h.739v3.238zm2.03-3.238h-1.696v3.238h1.696v-3.238z" fill="#FFFFFF" opacity=".4" data-color="3"></path>
        <path fill="#FFB733" d="M143.383 125.628v3.022h-18.308v-3.022h18.308z" data-color="2"></path>
        <path fill="#FFFFFF" opacity=".1" d="M143.383 125.411v2.707h-18.308v-2.707h18.308z" data-color="3"></path>
        <path d="M127.12 128.65h-.739v-3.239h.739v3.239zm2.03-3.239h-1.696v3.239h1.696v-3.239z" fill="#FFFFFF" opacity=".4" data-color="3"></path>
        <path fill="#FFB733" d="M143.383 122.389v3.022h-18.308v-3.022h18.308z" data-color="2"></path>
        <path fill="#FFFFFF" opacity=".1" d="M143.383 122.173v2.705h-18.308v-2.705h18.308z" data-color="3"></path>
        <path d="M127.12 125.411h-.739v-3.238h.739v3.238zm2.03-3.238h-1.696v3.238h1.696v-3.238z" fill="#FFFFFF" opacity=".4" data-color="3"></path>
        <path fill="#FFB733" d="M143.383 119.152v3.021h-18.308v-3.021h18.308z" data-color="2"></path>
        <path fill="#FFFFFF" opacity=".1" d="M143.383 118.934v2.707h-18.308v-2.707h18.308z" data-color="3"></path>
        <path d="M127.12 122.173h-.739v-3.239h.739v3.239zm2.03-3.239h-1.696v3.239h1.696v-3.239z" fill="#FFFFFF" opacity=".4" data-color="3"></path>
        <path fill="#FFB733" d="M143.383 115.912v3.022h-18.308v-3.022h18.308z" data-color="2"></path>
        <path fill="#FFFFFF" opacity=".1" d="M143.383 115.696v2.706h-18.308v-2.706h18.308z" data-color="3"></path>
        <path d="M127.12 118.934h-.739v-3.237h.739v3.237zm2.03-3.238h-1.696v3.237h1.696v-3.237z" fill="#FFFFFF" opacity=".4" data-color="3"></path>
        <path fill="#FFB733" d="M143.383 112.675v3.022h-18.308v-3.022h18.308z" data-color="2"></path>
        <path fill="#FFFFFF" opacity=".1" d="M143.383 112.457v2.707h-18.308v-2.707h18.308z" data-color="3"></path>
        <path d="M127.12 115.696h-.739v-3.239h.739v3.239zm2.03-3.239h-1.696v3.239h1.696v-3.239z" fill="#FFFFFF" opacity=".4" data-color="3"></path>
        <path fill="#FFB733" d="M143.383 109.435v3.022h-18.308v-3.022h18.308z" data-color="2"></path>
        <path fill="#FFFFFF" opacity=".1" d="M143.383 109.219v2.706h-18.308v-2.706h18.308z" data-color="3"></path>
        <path d="M127.12 112.457h-.739v-3.238h.739v3.238zm2.03-3.238h-1.696v3.238h1.696v-3.238z" fill="#FFFFFF" opacity=".4" data-color="3"></path>
        <path fill="#FFB733" d="M143.383 106.198v3.021h-18.308v-3.021h18.308z" data-color="2"></path>
        <path fill="#FFFFFF" opacity=".1" d="M143.383 105.98v2.707h-18.308v-2.707h18.308z" data-color="3"></path>
        <path d="M127.12 109.219h-.739v-3.239h.739v3.239zm2.03-3.239h-1.696v3.239h1.696v-3.239z" fill="#FFFFFF" opacity=".4" data-color="3"></path>
        <path fill="#FFB733" d="M143.383 102.958v3.022h-18.308v-3.022h18.308z" data-color="2"></path>
        <path fill="#FFFFFF" opacity=".1" d="M143.383 102.743v2.705h-18.308v-2.705h18.308z" data-color="3"></path>
        <path d="M127.12 105.98h-.739v-3.237h.739v3.237zm2.03-3.237h-1.696v3.237h1.696v-3.237z" fill="#FFFFFF" opacity=".4" data-color="3"></path>
        <path fill="#FFB733" d="M143.383 99.721v3.022h-18.308v-3.022h18.308z" data-color="2"></path>
        <path fill="#FFFFFF" opacity=".1" d="M143.383 99.503v2.707h-18.308v-2.707h18.308z" data-color="3"></path>
        <path d="M127.12 102.743h-.739v-3.239h.739v3.239zm2.03-3.24h-1.696v3.239h1.696v-3.239z" fill="#FFFFFF" opacity=".4" data-color="3"></path>
        <path fill="#FFB733" d="M143.383 96.481v3.022h-18.308v-3.022h18.308z" data-color="2"></path>
        <path fill="#FFFFFF" opacity=".1" d="M143.383 96.266v2.706h-18.308v-2.706h18.308z" data-color="3"></path>
        <path d="M127.12 99.503h-.739v-3.238h.739v3.238zm2.03-3.237h-1.696v3.238h1.696v-3.238z" fill="#FFFFFF" opacity=".4" data-color="3"></path>
        <path fill="#FFB733" d="M143.383 93.245v3.021h-18.308v-3.021h18.308z" data-color="2"></path>
        <path fill="#FFFFFF" opacity=".1" d="M143.383 93.026v2.707h-18.308v-2.707h18.308z" data-color="3"></path>
        <path d="M127.12 96.266h-.739v-3.239h.739v3.239zm2.03-3.24h-1.696v3.239h1.696v-3.239z" fill="#FFFFFF" opacity=".4" data-color="3"></path>
        <path fill="#FFB733" d="M143.383 90.004v3.022h-18.308v-3.022h18.308z" data-color="2"></path>
        <path fill="#FFFFFF" opacity=".1" d="M143.383 89.789v2.705h-18.308v-2.705h18.308z" data-color="3"></path>
        <path d="M127.12 93.026h-.739v-3.237h.739v3.237zm2.03-3.237h-1.696v3.237h1.696v-3.237z" fill="#FFFFFF" opacity=".4" data-color="3"></path>
        <path fill="#FFB733" d="M143.383 86.768v3.022h-18.308v-3.022h18.308z" data-color="2"></path>
        <path fill="#FFFFFF" opacity=".1" d="M143.383 86.55v2.707h-18.308V86.55h18.308z" data-color="3"></path>
        <path d="M127.12 89.789h-.739V86.55h.739v3.239zm2.03-3.239h-1.696v3.239h1.696V86.55z" fill="#FFFFFF" opacity=".4" data-color="3"></path>
        <path fill="#FFB733" d="M97.752 128.865v3.023H79.443v-3.023h18.309z" data-color="2"></path>
        <path fill="#FFFFFF" opacity=".1" d="M97.752 128.65v2.706H79.443v-2.706h18.309z" data-color="3"></path>
        <path d="M81.489 131.888h-.742v-3.238h.742v3.238zm2.028-3.238h-1.694v3.238h1.694v-3.238z" fill="#FFFFFF" opacity=".4" data-color="3"></path>
        <path fill="#FFB733" d="M97.752 125.628v3.022H79.443v-3.022h18.309z" data-color="2"></path>
        <path fill="#FFFFFF" opacity=".1" d="M97.752 125.411v2.707H79.443v-2.707h18.309z" data-color="3"></path>
        <path d="M81.489 128.65h-.742v-3.239h.742v3.239zm2.028-3.239h-1.694v3.239h1.694v-3.239z" fill="#FFFFFF" opacity=".4" data-color="3"></path>
        <path fill="#FFB733" d="M97.752 122.39v3.02H79.443v-3.02h18.309z" data-color="2"></path>
        <path fill="#FFFFFF" opacity=".1" d="M97.752 122.173v2.708H79.443v-2.708h18.309z" data-color="3"></path>
        <path d="M81.489 125.411h-.742v-3.238h.742v3.238zm2.028-3.238h-1.694v3.238h1.694v-3.238z" fill="#FFFFFF" opacity=".4" data-color="3"></path>
        <path fill="#FFB733" d="M97.752 119.152v3.021H79.443v-3.021h18.309z" data-color="2"></path>
        <path fill="#FFFFFF" opacity=".1" d="M97.752 118.936v2.707H79.443v-2.707h18.309z" data-color="3"></path>
        <path d="M81.489 122.173h-.742v-3.237h.742v3.237zm2.028-3.237h-1.694v3.237h1.694v-3.237z" fill="#FFFFFF" opacity=".4" data-color="3"></path>
        <path fill="#FFB733" d="M97.752 115.914v3.021H79.443v-3.021h18.309z" data-color="2"></path>
        <path fill="#FFFFFF" opacity=".1" d="M97.752 115.697v2.707H79.443v-2.707h18.309z" data-color="3"></path>
        <path d="M81.489 118.936h-.742v-3.238h.742v3.238zm2.028-3.239h-1.694v3.238h1.694v-3.238z" fill="#FFFFFF" opacity=".4" data-color="3"></path>
        <path fill="#FFB733" d="M97.752 112.677v3.02H79.443v-3.02h18.309z" data-color="2"></path>
        <path fill="#FFFFFF" opacity=".1" d="M97.752 112.46v2.707H79.443v-2.707h18.309z" data-color="3"></path>
        <path d="M81.489 115.697h-.742v-3.238h.742v3.238zm2.028-3.237h-1.694v3.238h1.694v-3.238z" fill="#FFFFFF" opacity=".4" data-color="3"></path>
        <path fill="#FFB733" d="M120.568 128.865v3.023H102.26v-3.023h18.308z" data-color="2"></path>
        <path fill="#FFFFFF" opacity=".1" d="M120.568 128.65v2.706H102.26v-2.706h18.308z" data-color="3"></path>
        <path d="M104.304 131.888h-.739v-3.238h.739v3.238zm2.031-3.238h-1.695v3.238h1.695v-3.238z" fill="#FFFFFF" opacity=".4" data-color="3"></path>
        <path fill="#FFB733" d="M120.568 125.628v3.022H102.26v-3.022h18.308z" data-color="2"></path>
        <path fill="#FFFFFF" opacity=".1" d="M120.568 125.411v2.707H102.26v-2.707h18.308z" data-color="3"></path>
        <path d="M104.304 128.65h-.739v-3.239h.739v3.239zm2.031-3.239h-1.695v3.239h1.695v-3.239z" fill="#FFFFFF" opacity=".4" data-color="3"></path>
        <path fill="#FFB733" d="M120.568 122.39v3.02H102.26v-3.02h18.308z" data-color="2"></path>
        <path fill="#FFFFFF" opacity=".1" d="M120.568 122.173v2.708H102.26v-2.708h18.308z" data-color="3"></path>
        <path d="M104.304 125.411h-.739v-3.238h.739v3.238zm2.031-3.238h-1.695v3.238h1.695v-3.238z" fill="#FFFFFF" opacity=".4" data-color="3"></path>
        <path fill="#FFB733" d="M120.568 119.152v3.021H102.26v-3.021h18.308z" data-color="2"></path>
        <path fill="#FFFFFF" opacity=".1" d="M120.568 118.936v2.707H102.26v-2.707h18.308z" data-color="3"></path>
        <path d="M104.304 122.173h-.739v-3.237h.739v3.237zm2.031-3.237h-1.695v3.237h1.695v-3.237z" fill="#FFFFFF" opacity=".4" data-color="3"></path>
        <path fill="#FFB733" d="M120.568 115.914v3.021H102.26v-3.021h18.308z" data-color="2"></path>
        <path fill="#FFFFFF" opacity=".1" d="M120.568 115.697v2.707H102.26v-2.707h18.308z" data-color="3"></path>
        <path d="M104.304 118.936h-.739v-3.238h.739v3.238zm2.031-3.239h-1.695v3.238h1.695v-3.238z" fill="#FFFFFF" opacity=".4" data-color="3"></path>
        <path fill="#FFB733" d="M120.568 112.677v3.02H102.26v-3.02h18.308z" data-color="2"></path>
        <path fill="#FFFFFF" opacity=".1" d="M120.568 112.46v2.707H102.26v-2.707h18.308z" data-color="3"></path>
        <path d="M104.304 115.697h-.739v-3.238h.739v3.238zm2.031-3.237h-1.695v3.238h1.695v-3.238z" fill="#FFFFFF" opacity=".4" data-color="3"></path>
        <path fill="#FFB733" d="M120.568 109.438v3.021H102.26v-3.021h18.308z" data-color="2"></path>
        <path fill="#FFFFFF" opacity=".1" d="M120.568 109.222v2.707H102.26v-2.707h18.308z" data-color="3"></path>
        <path d="M104.304 112.46h-.739v-3.238h.739v3.238zm2.031-3.238h-1.695v3.238h1.695v-3.238z" fill="#FFFFFF" opacity=".4" data-color="3"></path>
        <path fill="#FFB733" d="M120.568 106.2v3.022H102.26V106.2h18.308z" data-color="2"></path>
        <path fill="#FFFFFF" opacity=".1" d="M120.568 105.984v2.706H102.26v-2.706h18.308z" data-color="3"></path>
        <path d="M104.304 109.222h-.739v-3.237h.739v3.237zm2.031-3.238h-1.695v3.237h1.695v-3.237z" fill="#FFFFFF" opacity=".4" data-color="3"></path>
        <path fill="#FFB733" d="M120.568 102.962v3.022H102.26v-3.022h18.308z" data-color="2"></path>
        <path fill="#FFFFFF" opacity=".1" d="M120.568 102.747v2.705H102.26v-2.705h18.308z" data-color="3"></path>
        <path d="M104.304 105.984h-.739v-3.237h.739v3.237zm2.031-3.237h-1.695v3.237h1.695v-3.237z" fill="#FFFFFF" opacity=".4" data-color="3"></path>
        <path fill="#FFB733" d="M120.568 99.725v3.023H102.26v-3.023h18.308z" data-color="2"></path>
        <path fill="#FFFFFF" opacity=".1" d="M120.568 99.509v2.706H102.26v-2.706h18.308z" data-color="3"></path>
        <path d="M104.304 102.747h-.739v-3.238h.739v3.238zm2.031-3.238h-1.695v3.238h1.695v-3.238z" fill="#FFFFFF" opacity=".4" data-color="3"></path>
        <path d="M56.625 115.149a2.126 2.126 0 0 1-.386-4.219c18.059-3.354 37.625-12.169 55.093-24.822 11.133-8.063 20.869-17.196 28.937-27.146a2.125 2.125 0 0 1 2.993-.312c.44.358.716.866.774 1.431.06.565-.105 1.12-.463 1.561-8.304 10.24-18.311 19.63-29.746 27.911-17.97 13.017-38.146 22.094-56.811 25.56a2.18 2.18 0 0 1-.391.036z" fill="#FFFFFF" data-color="3"></path>
        <path d="M143.371 76.326a2.12 2.12 0 0 1-2.113-1.906l-1.231-11.782-11.78 1.23a2.121 2.121 0 0 1-2.337-1.894c-.06-.565.105-1.12.463-1.561a2.112 2.112 0 0 1 1.433-.775l16.011-1.672 1.673 16.012a2.132 2.132 0 0 1-2.119 2.348z" fill="#FFFFFF" data-color="3"></path>
        <path d="M73.469 128.65h.701v3.238h-.701v-3.238zm-4.052 3.238h3.552v-3.238h-3.552v3.238z" opacity=".05"></path>
        <path d="M73.469 125.411h.701v3.239h-.701v-3.239zm-4.052 3.239h3.552v-3.239h-3.552v3.239z" opacity=".05"></path>
        <path d="M141.915 128.65h.702v3.238h-.702v-3.238zm-4.052 3.238h3.553v-3.238h-3.553v3.238z" opacity=".05"></path>
        <path d="M141.915 125.411h.702v3.239h-.702v-3.239zm-4.052 3.239h3.553v-3.239h-3.553v3.239z" opacity=".05"></path>
        <path d="M141.915 122.173h.702v3.238h-.702v-3.238zm-4.052 3.238h3.553v-3.238h-3.553v3.238z" opacity=".05"></path>
        <path d="M141.915 118.934h.702v3.239h-.702v-3.239zm-4.052 3.239h3.553v-3.239h-3.553v3.239z" opacity=".05"></path>
        <path d="M141.915 115.696h.702v3.237h-.702v-3.237zm-4.052 3.238h3.553v-3.237h-3.553v3.237z" opacity=".05"></path>
        <path d="M141.915 112.457h.702v3.239h-.702v-3.239zm-4.052 3.239h3.553v-3.239h-3.553v3.239z" opacity=".05"></path>
        <path d="M141.915 109.219h.702v3.238h-.702v-3.238zm-4.052 3.238h3.553v-3.238h-3.553v3.238z" opacity=".05"></path>
        <path d="M141.915 105.98h.702v3.239h-.702v-3.239zm-4.052 3.239h3.553v-3.239h-3.553v3.239z" opacity=".05"></path>
        <path d="M141.915 102.743h.702v3.237h-.702v-3.237zm-4.052 3.237h3.553v-3.237h-3.553v3.237z" opacity=".05"></path>
        <path d="M141.915 99.503h.702v3.239h-.702v-3.239zm-4.052 3.24h3.553v-3.239h-3.553v3.239z" opacity=".05"></path>
        <path d="M141.915 96.266h.702v3.238h-.702v-3.238zm-4.052 3.237h3.553v-3.238h-3.553v3.238z" opacity=".05"></path>
        <path d="M141.915 93.026h.702v3.239h-.702v-3.239zm-4.052 3.24h3.553v-3.239h-3.553v3.239z" opacity=".05"></path>
        <path d="M141.915 89.789h.702v3.237h-.702v-3.237zm-4.052 3.237h3.553v-3.237h-3.553v3.237z" opacity=".05"></path>
        <path d="M141.915 86.55h.702v3.239h-.702V86.55zm-4.052 3.239h3.553V86.55h-3.553v3.239z" opacity=".05"></path>
        <path d="M96.286 128.65h.7v3.238h-.7v-3.238zm-4.054 3.238h3.553v-3.238h-3.553v3.238z" opacity=".05"></path>
        <path d="M96.286 125.411h.7v3.239h-.7v-3.239zm-4.054 3.239h3.553v-3.239h-3.553v3.239z" opacity=".05"></path>
        <path d="M96.286 122.173h.7v3.238h-.7v-3.238zm-4.054 3.238h3.553v-3.238h-3.553v3.238z" opacity=".05"></path>
        <path d="M96.286 118.936h.7v3.237h-.7v-3.237zm-4.054 3.237h3.553v-3.237h-3.553v3.237z" opacity=".05"></path>
        <path d="M96.286 115.697h.7v3.238h-.7v-3.238zm-4.054 3.239h3.553v-3.238h-3.553v3.238z" opacity=".05"></path>
        <path d="M96.286 112.46h.7v3.238h-.7v-3.238zm-4.054 3.237h3.553v-3.238h-3.553v3.238z" opacity=".05"></path>
        <path d="M119.101 128.65h.7v3.238h-.7v-3.238zm-4.052 3.238h3.551v-3.238h-3.551v3.238z" opacity=".05"></path>
        <path d="M119.101 125.411h.7v3.239h-.7v-3.239zm-4.052 3.239h3.551v-3.239h-3.551v3.239z" opacity=".05"></path>
        <path d="M119.101 122.173h.7v3.238h-.7v-3.238zm-4.052 3.238h3.551v-3.238h-3.551v3.238z" opacity=".05"></path>
        <path d="M119.101 118.936h.7v3.237h-.7v-3.237zm-4.052 3.237h3.551v-3.237h-3.551v3.237z" opacity=".05"></path>
        <path d="M119.101 115.697h.7v3.238h-.7v-3.238zm-4.052 3.239h3.551v-3.238h-3.551v3.238z" opacity=".05"></path>
        <path d="M119.101 112.46h.7v3.238h-.7v-3.238zm-4.052 3.237h3.551v-3.238h-3.551v3.238z" opacity=".05"></path>
        <path d="M119.101 109.222h.7v3.238h-.7v-3.238zm-4.052 3.238h3.551v-3.238h-3.551v3.238z" opacity=".05"></path>
        <path d="M119.101 105.984h.7v3.237h-.7v-3.237zm-4.052 3.238h3.551v-3.237h-3.551v3.237z" opacity=".05"></path>
        <path d="M119.101 102.747h.7v3.237h-.7v-3.237zm-4.052 3.237h3.551v-3.237h-3.551v3.237z" opacity=".05"></path>
        <path d="M119.101 99.509h.7v3.238h-.7v-3.238zm-4.052 3.238h3.551v-3.238h-3.551v3.238z" opacity=".05"></path>
    </g>
</svg>