<svg preserveAspectRatio="xMidYMid meet" data-bbox="44.3 16.6 111 167" viewBox="44.3 16.6 111 167" height="200" width="200" xmlns="http://www.w3.org/2000/svg" data-type="color" role="presentation" aria-hidden="true" aria-label="">
<defs><style>#comp-lq5p5blp__item1 svg [data-color="1"] {fill: #3D9BE9;}
#comp-lq5p5blp__item1 svg [data-color="2"] {fill: #434459;}</style></defs>
    <g>
        <path d="M145.4 45.5c-.1-.1-.1-.2-.2-.3-.2-.2-.3-.4-.5-.7-4.6-6.6-10.6-12.1-17.6-16.2l-2.1-4.8c-.4-1.1-1.3-2-2.5-2.4l-17.1-.2-2.9-3.1c-1.6-1.6-4.2-1.6-5.9 0L93.9 21H78.3c-1.7 0-3.2 1-3.8 2.6l-2 4.7c-7 4-13 9.6-17.6 16.2-.2.2-.3.5-.5.7-.1.1-.1.2-.2.3-6.4 9.3-9.9 20.3-9.9 31.6v50.7c0 29.8 23.4 54.2 52.7 55.7.9 0 1.9.1 2.8.1.9 0 1.9 0 2.8-.1 29.3-1.5 52.7-25.9 52.7-55.7V77.1c0-11.3-3.5-22.4-9.9-31.6z" fill="#3D9BE9" data-color="1"></path>
        <path d="M105.4 66.3h9.1c.3 0 .7-.3.7-.7v-11c0-2.9-2.4-5.3-5.2-5.3s-5.2 2.4-5.2 5.3v11.1c0 .3.2.6.6.6zm.6-11.7c0-2 1.4-3.6 3.3-3.9v4.4c0 .3.3.7.7.7.4 0 .7-.3.7-.7v-4.4c1.9.3 3.3 2 3.3 3.9v10.5h-7.9l-.1-10.5z" fill="#853c61" data-color="2"></path>
        <path d="M110 57c-.3 0-.7.3-.7.7v5.1c0 .3.3.7.7.7.4 0 .7-.3.7-.7v-5.1c-.1-.4-.3-.7-.7-.7z" fill="#853c61" data-color="2"></path>
        <path d="M89.5 49.3c-2.9 0-5.2 2.4-5.2 5.3v11.1c0 .3.3.7.7.7h9.1c.3 0 .7-.3.7-.7V54.6c0-2.9-2.4-5.3-5.3-5.3zm4 15.8h-7.9V54.6c0-2 1.4-3.6 3.3-3.9v4.4c0 .3.3.7.7.7s.7-.3.7-.7v-4.4c1.9.3 3.3 2 3.3 3.9l-.1 10.5z" fill="#853c61" data-color="2"></path>
        <path d="M89.5 57c-.3 0-.7.3-.7.7v5.1c0 .3.3.7.7.7.4 0 .7-.3.7-.7v-5.1c0-.4-.2-.7-.7-.7z" fill="#853c61" data-color="2"></path>
        <path d="M115.2 87.2V76c0-2.9-2.4-5.3-5.2-5.3s-5.2 2.4-5.2 5.3v11.1c0 .3.3.7.7.7h9.1c.3 0 .6-.3.6-.6zm-1.3-.7H106V76c0-2 1.4-3.6 3.3-3.9v4.4c0 .3.3.7.7.7.4 0 .7-.3.7-.7v-4.4c1.9.3 3.3 2 3.3 3.9l-.1 10.5z" fill="#853c61" data-color="2"></path>
        <path d="M110 78.5c-.3 0-.7.3-.7.7v5.1c0 .3.3.7.7.7.4 0 .7-.3.7-.7v-5.1c-.1-.4-.3-.7-.7-.7z" fill="#853c61" data-color="2"></path>
        <path d="M89.5 70.8c-2.9 0-5.2 2.4-5.2 5.3v11.1c0 .3.3.7.7.7h9.1c.3 0 .7-.3.7-.7V76c0-2.9-2.4-5.2-5.3-5.2zm4 15.7h-7.9V76c0-2 1.4-3.6 3.3-3.9v4.4c0 .3.3.7.7.7s.7-.3.7-.7v-4.4c1.9.3 3.3 2 3.3 3.9l-.1 10.5z" fill="#853c61" data-color="2"></path>
        <path d="M89.5 78.5c-.3 0-.7.3-.7.7v5.1c0 .3.3.7.7.7.4 0 .7-.3.7-.7v-5.1c0-.4-.2-.7-.7-.7z" fill="#853c61" data-color="2"></path>
        <path d="M99.8 35c1.7 0 3.1-1.4 3.1-3.1 0-1.7-1.4-3.1-3.1-3.1s-3.1 1.4-3.1 3.1c-.1 1.7 1.4 3.1 3.1 3.1zm0-5.1c1 0 1.9.9 1.9 1.9 0 1-.8 1.9-1.9 1.9s-1.9-.9-1.9-1.9c0-1 .9-1.9 1.9-1.9z" fill="#853c61" data-color="2"></path>
        <path d="M118.4 117.1H81.2c-.3 0-.7.3-.7.7 0 .3.3.7.7.7h37.2c.3 0 .7-.3.7-.7-.1-.4-.4-.7-.7-.7z" fill="#853c61" data-color="2"></path>
        <path d="M121.3 115.1c.3 0 .7-.3.7-.7 0-.3-.3-.7-.7-.7h-43c-.3 0-.7.3-.7.7 0 .3.3.7.7.7h43z" fill="#853c61" data-color="2"></path>
        <path d="M135 38.7c-.5-.5-1.4-.4-1.8.1-.5.5-.4 1.4.1 1.8 10.1 9.4 16 22.8 16 36.6v23.1c-1.3-2.1-3.3-4.4-6.7-6-3-1.3-4.7-2.9-5.3-4.8-.8-2.2-.3-5.2 1.8-9.3.8-.2 2.5-.6 3.4-2 1.2-1.8.4-4.3.4-4.3-.1-.3-.3-.5-.7-.4-.1 0-2.6.3-3.8 2-1 1.5-.6 3.6-.4 4.2-2.2 4.3-2.8 7.7-1.9 10.2.8 2.3 2.8 4.1 6 5.5 4.3 1.9 6.3 5.4 7.2 7.8v.8c-1.2-.4-2.6-.3-4.3.4-3.2 1.3-4.7-.9-5-1.5.1-.5.3-2.7-.9-4.2-1.4-1.6-3.9-1.6-4.1-1.6-.3 0-.6.3-.6.5 0 .1-.4 2.6.9 4.3 1 1.2 2.7 1.5 3.6 1.5.5.9 2.5 3.7 6.5 2 2-.9 3.2-.6 3.8-.2v16.4c-1.6-4.1-4.7-8.8-10.7-9.6-.3-.7-1.4-2.2-3-2.6-2-.5-4.1 1-4.2 1-.3.2-.3.5-.2.8.1.1 1.1 2.5 3.2 3 .3.1.6.1.9.1 1.4 0 2.6-.7 3-1 7.4.9 10.1 8.9 10.9 12.7v1.6c0 13.5-5.4 25.8-14.1 34.8h-7.6V37.9l-5.6-13.1c-.1-.3-.3-.4-.6-.4H104l-3.9-4.1c-.3-.3-.7-.3-.9 0l-3.9 4.2H78.2c-.3 0-.5.2-.6.4L72.1 38c-.1.1-.1.2 0 .3v124.3h-7.6c-8.7-9-14.1-21.3-14.1-34.8v-1.6c.8-3.7 3.5-11.7 10.9-12.7.5.3 1.7 1 3 1 .3 0 .6 0 .9-.1 2-.5 3.1-2.9 3.2-3 .1-.3.1-.6-.2-.8-.1-.1-2.2-1.6-4.2-1-1.6.4-2.6 2-3 2.6-5.9.8-9 5.5-10.7 9.6v-16.4c.7-.4 1.9-.6 3.8.2 4.1 1.6 6.1-1.2 6.5-2 .8-.1 2.5-.3 3.6-1.5 1.4-1.6.9-4.2.9-4.3-.1-.3-.3-.5-.6-.5-.1 0-2.7 0-4.1 1.6-1.3 1.4-1 3.7-.9 4.2-.3.7-1.8 2.8-5 1.5-1.7-.7-3.1-.9-4.3-.4v-.8c.9-2.5 2.9-5.9 7.2-7.8 3.3-1.4 5.2-3.2 6-5.5.9-2.6.3-5.9-1.9-10.2.2-.6.6-2.6-.4-4.2-1.2-2-3.7-2.3-3.8-2.3-.3 0-.6.2-.7.4 0 .1-.8 2.6.4 4.3.9 1.4 2.6 1.9 3.4 2 2 4.1 2.6 7 1.8 9.3-.7 2-2.5 3.5-5.3 4.8-3.4 1.4-5.4 3.7-6.7 6v-23c0-13.8 5.8-27.1 16-36.6.5-.5.5-1.3.1-1.8-.5-.5-1.3-.5-1.8-.1-10.7 10-16.8 23.9-16.8 38.4v50.7c0 28.8 23.3 52.3 52 52.3s52-23.5 52-52.3V77.1c.1-14.5-6-28.5-16.7-38.4zm4.4 37.6c.6-.9 1.7-1.3 2.4-1.4.1.7.2 1.9-.3 2.7-.6.9-1.7 1.3-2.4 1.4-.2-.7-.2-1.9.3-2.7zm-3.8 22.3c.7.1 1.9.3 2.5 1.1.7.8.7 2 .7 2.6-.7-.1-1.9-.3-2.5-1.1-.7-.8-.7-2-.7-2.6zm-.9 14.5c-1-.3-1.7-1.2-2-1.8.6-.3 1.7-.8 2.6-.5 1 .3 1.7 1.2 2 1.8-.6.3-1.6.8-2.6.5zm-70.4-2.3c1-.3 2 .2 2.6.5-.3.6-1.1 1.5-2.1 1.8-1 .3-2-.2-2.6-.5.4-.6 1-1.5 2.1-1.8zm-2.8-11.1c.7-.8 1.8-1 2.5-1.1 0 .7 0 1.9-.7 2.6s-1.8 1-2.5 1.1c0-.7.1-1.9.7-2.6zm-3.3-22.1c-.6-.9-.5-2-.3-2.7.7.2 1.8.5 2.4 1.4.6.9.5 2 .3 2.7-.7-.2-1.8-.6-2.4-1.4zm16.4 22.8V58.1h2.1c.3 0 .6-.3.6-.6s-.3-.6-.6-.6h-2.1V39.8H125v33.1h-2.1c-.3 0-.6.3-.6.6s.3.6.6.6h2.1v26.4l-50.4-.1zm.3-65.9h17.5v2.7H73.8l1.1-2.7zm2-4.4h15.6v3.1H75.6l1.3-3.1zm47.2 3.2h-16.9v-3.1h15.6l1.3 3.1zm-17 1.2h17.5l1.2 2.7h-18.7v-2.7zm13.7-8.7l1.4 3.1h-15.1v-1c0-.2-.1-.3-.2-.4l-1.6-1.6 15.5-.1zm-21-4l6.1 6.3v9.2H93.7v-9.2l6.1-6.3zm-21.1 4h15.5l-1.6 1.6c-.1.1-.2.3-.2.4v1h-15l1.3-3zm-4.1 111.8h2.8c.3 0 .6-.3.6-.6s-.3-.6-.6-.6h-2.8v-34.8h3.1v10.5c0 .3.3.6.6.6s.6-.3.6-.6v-10.4h4.2v10.4c0 .3.3.6.6.6s.6-.3.6-.6v-10.4h4.2v10.4c0 .3.3.6.6.6s.6-.3.6-.6v-10.4h4.2v10.4c0 .3.3.6.6.6s.6-.3.6-.6v-10.4h4.2v10.4c0 .3.3.6.6.6s.6-.3.6-.6v-10.4h4.2v10.4c0 .3.3.6.6.6s.6-.3.6-.6v-10.4h4.2v10.4c0 .3.3.6.6.6s.6-.3.6-.6v-10.4h4.2v10.4c0 .3.3.6.6.6s.6-.3.6-.6v-10.4h4.2v10.4c0 .3.3.6.6.6s.6-.3.6-.6v-10.4h3.1v20.2h-2.8c-.3 0-.6.3-.6.6s.3.6.6.6h2.8v39.5h-12.1v-23.5h2.7c.3 0 .6-.3.6-.6s-.3-.6-.6-.6h-2.7v-9.6c0-.7-.6-1.3-1.3-1.3h-24c-.7 0-1.3.6-1.3 1.3v34.2H74.6v-24.9zm23.6 16.6h3.7c.3 0 .7-.3.7-.7 0-.4-.3-.7-.7-.7h-3.7v-15.7l12.2-7.4V164l-12.3 6.2.1-16zM67 165.1h20.9c.7 0 1.3-.6 1.3-1.3v-34.2h19l-11.1 6.7c-.2.1-.3.3-.3.5v34.5c0 .3.1.4.3.5.1.1.3.1.3.1.1 0 .2 0 .3-.1l13.5-6.9h21.2c-8.7 7.9-20.1 12.6-32.6 12.6s-24-4.6-32.8-12.4z" fill="#853c61" data-color="2"></path>
        <path d="M82.4 44.6h-3.5c-.3 0-.6.3-.6.6s.3.6.6.6h3.5c.3 0 .6-.3.6-.6-.1-.4-.3-.6-.6-.6z" fill="#853c61" data-color="2"></path>
        <path d="M114.6 44.6h4.1c.3 0 .6-.3.6-.6s-.3-.6-.6-.6h-4.1c-.3 0-.6.3-.6.6 0 .4.2.6.6.6z" fill="#853c61" data-color="2"></path>
        <path d="M81.2 144.4h-4.1c-.3 0-.6.3-.6.6s.3.6.6.6h4.1c.3 0 .6-.3.6-.6s-.3-.6-.6-.6z" fill="#853c61" data-color="2"></path>
        <path d="M123.1 92.7h-3c-.3 0-.6.3-.6.6s.3.6.6.6h3c.3 0 .6-.3.6-.6s-.2-.6-.6-.6z" fill="#853c61" data-color="2"></path>
        <path d="M121.6 95.7h-3c-.3 0-.6.3-.6.6s.3.6.6.6h3c.3 0 .6-.3.6-.6s-.3-.6-.6-.6z" fill="#853c61" data-color="2"></path>
        <path d="M116.5 90.5c0 .3.3.6.6.6h3c.3 0 .6-.3.6-.6s-.3-.6-.6-.6h-3c-.3 0-.6.2-.6.6z" fill="#853c61" data-color="2"></path>
        <path d="M116.6 92.8h-3c-.3 0-.6.3-.6.6s.3.6.6.6h3c.3 0 .6-.3.6-.6 0-.4-.3-.6-.6-.6z" fill="#853c61" data-color="2"></path>
        <path d="M89.2 89.2h-4.1c-.3 0-.6.3-.6.6s.3.6.6.6h4.1c.3 0 .6-.3.6-.6s-.3-.6-.6-.6z" fill="#853c61" data-color="2"></path>
    </g>
</svg>