<svg preserveAspectRatio="xMidYMid meet" data-bbox="20 25.999 160 148.001" viewBox="20 25.999 160 148.001" height="200" width="200" xmlns="http://www.w3.org/2000/svg" data-type="color" role="presentation" aria-hidden="true" aria-label="">
    <g>
        <path d="M150.876 174H49.124v-2.666c0-8.659 7.037-15.705 15.686-15.705h3.288c.885-7.336 7.14-13.039 14.701-13.039h34.914c7.561 0 13.817 5.704 14.701 13.039h2.777c8.649 0 15.686 7.045 15.686 15.705V174zm-98.149-3.574h94.546c-.466-6.266-5.707-11.222-12.083-11.222h-6.24v-1.787c0-6.205-5.041-11.252-11.238-11.252H82.798c-6.196 0-11.238 5.048-11.238 11.252v1.787h-6.751c-6.375 0-11.617 4.956-12.082 11.222z" fill="#04723D" data-color="1"></path>
        <path d="M100 146.164c-.986 0-1.785-.8-1.785-1.787V52.791a1.786 1.786 0 1 1 3.57 0v91.587a1.787 1.787 0 0 1-1.785 1.786z" fill="#04723D" data-color="1"></path>
        <path d="M100 54.579c-5.218 0-9.463-4.251-9.463-9.476s4.245-9.475 9.463-9.475 9.464 4.25 9.464 9.475-4.246 9.476-9.464 9.476zm0-15.377c-3.25 0-5.894 2.647-5.894 5.901s2.644 5.902 5.894 5.902 5.895-2.648 5.895-5.902-2.645-5.901-5.895-5.901z" fill="#04723D" data-color="1"></path>
        <path d="M46.308 111.154C31.802 111.154 20 99.338 20 84.814v-1.787h52.616v1.787c0 14.524-11.802 26.34-26.308 26.34zM23.639 86.601c.914 11.721 10.732 20.979 22.67 20.979 11.937 0 21.755-9.258 22.669-20.979H23.639z" fill="#04723D" data-color="1"></path>
        <path d="M31.891 72.073a1.79 1.79 0 0 1-1.464-2.808l14.416-20.719a1.783 1.783 0 0 1 2.485-.445 1.79 1.79 0 0 1 .445 2.488L33.357 71.308a1.78 1.78 0 0 1-1.466.765z" fill="#04723D" data-color="1"></path>
        <path d="M60.726 72.073a1.782 1.782 0 0 1-1.466-.766L44.844 50.589a1.79 1.79 0 0 1 .445-2.488 1.784 1.784 0 0 1 2.485.445L62.19 69.265a1.79 1.79 0 0 1-1.464 2.808z" fill="#04723D" data-color="1"></path>
        <path d="M46.306 51.355a1.786 1.786 0 0 1-.17-3.566l46.013-4.465a1.786 1.786 0 0 1 .345 3.557l-46.013 4.465a1.724 1.724 0 0 1-.175.009z" fill="#04723D" data-color="1"></path>
        <path d="M153.692 111.154c-14.507 0-26.308-11.816-26.308-26.34v-1.787H180v1.787c0 14.524-11.802 26.34-26.308 26.34zm-22.67-24.553c.914 11.721 10.732 20.979 22.67 20.979s21.756-9.258 22.67-20.979h-45.34z" fill="#04723D" data-color="1"></path>
        <path d="M168.108 72.073a1.782 1.782 0 0 1-1.466-.766l-14.415-20.719a1.79 1.79 0 0 1 .445-2.488 1.785 1.785 0 0 1 2.485.445l14.415 20.719a1.79 1.79 0 0 1-1.464 2.809z" fill="#04723D" data-color="1"></path>
        <path d="M139.274 72.073a1.79 1.79 0 0 1-1.464-2.808l14.416-20.719a1.784 1.784 0 0 1 2.485-.445 1.79 1.79 0 0 1 .445 2.488L140.74 71.308a1.78 1.78 0 0 1-1.466.765z" fill="#04723D" data-color="1"></path>
        <path d="M153.694 51.355c-.058 0-.116-.003-.174-.008l-46.013-4.465a1.786 1.786 0 0 1-1.604-1.951 1.783 1.783 0 0 1 1.949-1.606l46.013 4.465a1.786 1.786 0 0 1-.171 3.565z" fill="#04723D" data-color="1"></path>
        <path d="M112.236 34.639c-.457 0-.913-.175-1.262-.524-6.052-6.06-15.897-6.058-21.948-.001a1.783 1.783 0 0 1-2.524 0 1.788 1.788 0 0 1 0-2.527c7.442-7.451 19.553-7.452 26.995.001a1.788 1.788 0 0 1-1.261 3.051z" fill="#04723D" data-color="1"></path>
    </g>
</svg>